<svg xmlns="http://www.w3.org/2000/svg" viewBox="0 0 230.3 240.1" style="enable-background:new 0 0 230.3 240.1;" xml:space="preserve">
<path fill="#FDFDFD" class="st0" d="M228.6,143.4c-2.5-7.7-6.8-15.5-6.8-23.2c0-7.9,4.4-15.8,6.9-23.7c3.4-10.6,1.3-17.4-7.5-24
	c-6.7-4.9-15-8.7-19.6-15.1c-4.7-6.5-5.7-15.7-8.4-23.7c-3.3-9.8-9.7-14.4-20.2-14.4c-7,0-14-0.1-21,0c-2.8,0.1-5.1-0.6-7.3-2.3
	c-6-4.5-12-8.9-18.2-13.2c-7.4-5.2-14.9-5.1-22.2,0c-3.3,2.3-6.7,4.4-9.7,7.1C81.4,23,62.9,19.3,60.3,19.3
	c-13.9,0-20.2,3.5-23.2,16.8c-3.6,16.2-12.2,27.3-26.2,35.7c-11,6.6-13.4,13.7-8.3,25.4c6.6,15.4,6.7,29.7,0.1,45.2
	c-5.2,12.1-2.8,19.1,8.4,25.9c13.8,8.3,23.2,19.1,25.7,35.4c0.1,0.6,0.5,1.2,0.7,1.9c3.4,10.6,9.6,15.1,20.6,15.2
	c8.2,0,16.9-1.8,24.3,0.6c7.5,2.4,13.8,9,20.5,13.8c9.1,6.5,15.9,6.5,25,0c6.6-4.7,12.7-11.3,20-13.7c7.6-2.4,16.5-0.7,24.8-0.8
	c11-0.1,18.1-4.4,20.4-15.2c3.6-16.9,12.2-29.1,27.3-37.8C230.6,162,232.2,154.5,228.6,143.4 M155.3,102.9l-47.4,47.4
	c-1.8,1.8-4.1,2.7-6.6,2.7c-2.5,0-4.8-1-6.6-2.7L75,130.6c-3.6-3.6-3.6-9.5,0-13.2c3.6-3.6,9.5-3.6,13.2,0l13.1,13.1l40.8-40.8
	c1.8-1.8,4.1-2.7,6.6-2.7c2.5,0,4.8,1,6.6,2.7c1.8,1.8,2.7,4.1,2.7,6.6C158,98.8,157,101.2,155.3,102.9"/>
</svg>