<svg version="1.1" id="Layer_2" xmlns="http://www.w3.org/2000/svg" xmlns:xlink="http://www.w3.org/1999/xlink" x="0px" y="0px" width="27px" height="20px" viewBox="0 0 351 344" enable-background="new 0 0 351 344" xml:space="preserve">
	<path fill="#e64279" d="M29.015,24.61v295.5h295.5V24.61H29.015z M322.063,317.969H31.969V27.938h290.094V317.969z"></path>
	<polygon fill="#e64279" points="99.125,95 124.25,95 162,170.625 61,170.625 "></polygon>
	<polygon fill="#e64279" points="142.625,126.625 164.625,170.625 187.5,170.625 225.375,95 192.25,95 "></polygon>
	<polygon fill="#e64279" points="229.75,95 192.125,170.625 293.625,170.625 255.75,95 "></polygon>
	<polygon fill="#e64279" points="189.25,175 215.125,175 253,250.75 152,250.75 "></polygon>
	<polygon fill="#e64279" points="185,175 84,175 122.25,250.75 103.125,288.625 128.625,288.625 "></polygon>
</svg>